
<svg xmlns="http://www.w3.org/2000/svg" viewBox="269.4 383.3 80.21 27.38"><style>.b{fill:#0051BA;}</style><path d="M269.4 384h74.38v26.68H269.4z" class="b"/><ellipse cx="306.592" cy="397.248" fill="#F9D616" rx="36.59" ry="12.231"/><path d="M346.7 387.04h-.4v-2.73h1.04c.64 0 .96.24.96.78 0 .5-.3.7-.7.76l.77 1.2h-.46l-.7-1.2h-.5v1.2zm.5-1.54c.35 0 .67-.02.67-.44 0-.34-.3-.4-.6-.4h-.56v.84h.5zm-2.4.17c0-1.36 1.1-2.37 2.4-2.37 1.3 0 2.4 1 2.4 2.37s-1.1 2.37-2.4 2.37c-1.3 0-2.4-1-2.4-2.37zm2.4 1.97c1.08 0 1.93-.83 1.93-1.97 0-1.13-.85-1.97-1.92-1.97-1.07 0-1.92.84-1.92 1.97 0 1.14.85 1.97 1.93 1.97zM328.66 401.95s.3-.34.2-.75l-.5-1.2h-2.9l-.48 1.2c-.1.4.2.75.2.75h-5.9s.33-.3.54-.76l3.13-8.26c.2-.52-.14-.82-.14-.82h9.4s-.33.3-.16.83l3.3 8.24c.28.52.64.75.64.75h-7.32zm-.96-3.73l-.73-1.8c-.1-.2-.1-.5-.1-.5s-.02.3-.1.5c-.04.06-.74 1.8-.74 1.8h1.67zM279.57 401.95c.38-.2.35-.82.35-.9v-8.32c0-.44-.3-.62-.3-.62h6.8s-.3.2-.3.63v8.3c0 .1-.02.73.36.92h-6.9zM295.6 396.02l2.27-3.17c.33-.48-.04-.74-.04-.74h6.68c0 .03-.3.2-.6.58l-2.5 3.44 3.14 5c.28.37.5.54.7.68.12.1.2.14.2.14h-7.8s.22-.13.02-.6l-2.07-3.43v3.14c0 .08-.1.72.28.9h-6.66c.38-.18.35-.82.35-.9v-8.3c0-.46-.3-.63-.3-.63h6.6s-.28.18-.28.63v3.3zM318.12 401.95v-3.46s-.42.43-1.03.43h-4.18v-.8h3.2c.18 0 .72.07.86.25v-3c-.14.2-.68.25-.86.25h-3.2v-.78h4.17c.6 0 1.02.44 1.02.44v-3.2h-11.3s.28.2.28.63v8.3c0 .1.03.73-.35.92h11.37z" class="b"/></svg>
